<svg width="21" height="23" viewBox="0 0 21 23" fill="none" xmlns="http://www.w3.org/2000/svg">
<path fill-rule="evenodd" clip-rule="evenodd" d="M10.6035 0.467529C7.55779 0.467529 5.08873 2.93659 5.08873 5.98232V7.36102H3.71004C3.00753 7.36102 2.41735 7.88925 2.33977 8.58747L0.961076 20.9958C0.917769 21.3855 1.04249 21.7753 1.30403 22.0675C1.56558 22.3597 1.93918 22.5267 2.33134 22.5267H18.8757C19.2679 22.5267 19.6415 22.3597 19.903 22.0675C20.1646 21.7753 20.2893 21.3855 20.246 20.9958L18.8673 8.58747C18.7897 7.88925 18.1995 7.36102 17.497 7.36102H16.1183V5.98232C16.1183 2.93659 13.6493 0.467529 10.6035 0.467529ZM13.3609 7.36102V5.98232C13.3609 4.45945 12.1264 3.22493 10.6035 3.22493C9.08066 3.22493 7.84613 4.45945 7.84613 5.98232V7.36102H13.3609ZM5.08873 11.4971C5.08873 10.7357 5.706 10.1184 6.46743 10.1184C7.22886 10.1184 7.84613 10.7357 7.84613 11.4971C7.84613 12.2585 7.22886 12.8758 6.46743 12.8758C5.706 12.8758 5.08873 12.2585 5.08873 11.4971ZM14.7396 10.1184C13.9782 10.1184 13.3609 10.7357 13.3609 11.4971C13.3609 12.2585 13.9782 12.8758 14.7396 12.8758C15.5011 12.8758 16.1183 12.2585 16.1183 11.4971C16.1183 10.7357 15.5011 10.1184 14.7396 10.1184Z" fill="#FFA654"/>
</svg>
