<svg width="23" height="24" viewBox="0 0 23 24" fill="none" xmlns="http://www.w3.org/2000/svg">
<path d="M1.95267 0.0827637C1.19124 0.0827637 0.573975 0.700028 0.573975 1.46146C0.573975 2.2229 1.19124 2.84016 1.95267 2.84016H3.63361L4.05489 4.52526C4.05931 4.54475 4.06415 4.56407 4.06938 4.58324L5.94059 12.0681L4.71 13.2987C2.97294 15.0357 4.20319 18.0058 6.65978 18.0058H18.497C19.2584 18.0058 19.8757 17.3886 19.8757 16.6271C19.8757 15.8657 19.2584 15.2484 18.497 15.2484L6.65978 15.2484L8.03847 13.8697H17.1184C17.6406 13.8697 18.118 13.5747 18.3515 13.1076L22.4876 4.83543C22.7013 4.40805 22.6784 3.9005 22.4272 3.49403C22.176 3.08757 21.7323 2.84016 21.2544 2.84016H6.47587L6.0476 1.12708C5.89416 0.513327 5.34271 0.0827637 4.71007 0.0827637H1.95267Z" fill="#FFA654"/>
<path d="M19.8757 21.4526C19.8757 22.5947 18.9499 23.5206 17.8077 23.5206C16.6656 23.5206 15.7397 22.5947 15.7397 21.4526C15.7397 20.3104 16.6656 19.3845 17.8077 19.3845C18.9499 19.3845 19.8757 20.3104 19.8757 21.4526Z" fill="#FFA654"/>
<path d="M6.77812 23.5206C7.92027 23.5206 8.84616 22.5947 8.84616 21.4526C8.84616 20.3104 7.92027 19.3845 6.77812 19.3845C5.63597 19.3845 4.71007 20.3104 4.71007 21.4526C4.71007 22.5947 5.63597 23.5206 6.77812 23.5206Z" fill="#FFA654"/>
</svg>
