<svg width="26" height="22" viewBox="0 0 26 22" fill="none" xmlns="http://www.w3.org/2000/svg">
<path d="M16.7397 4.97032C16.7397 7.25463 14.8879 9.10642 12.6036 9.10642C10.3193 9.10642 8.4675 7.25463 8.4675 4.97032C8.4675 2.68602 10.3193 0.834229 12.6036 0.834229C14.8879 0.834229 16.7397 2.68602 16.7397 4.97032Z" fill="#FFA654"/>
<path d="M23.6332 7.72772C23.6332 9.25059 22.3987 10.4851 20.8758 10.4851C19.3529 10.4851 18.1184 9.25059 18.1184 7.72772C18.1184 6.20485 19.3529 4.97032 20.8758 4.97032C22.3987 4.97032 23.6332 6.20485 23.6332 7.72772Z" fill="#FFA654"/>
<path d="M18.1184 17.3786C18.1184 14.3329 15.6493 11.8638 12.6036 11.8638C9.55786 11.8638 7.0888 14.3329 7.0888 17.3786V21.5147H18.1184V17.3786Z" fill="#FFA654"/>
<path d="M7.0888 7.72772C7.0888 9.25059 5.85428 10.4851 4.33141 10.4851C2.80854 10.4851 1.57401 9.25059 1.57401 7.72772C1.57401 6.20485 2.80854 4.97032 4.33141 4.97032C5.85428 4.97032 7.0888 6.20485 7.0888 7.72772Z" fill="#FFA654"/>
<path d="M20.8758 21.5147V17.3786C20.8758 15.9253 20.501 14.5594 19.8428 13.3726C20.173 13.2877 20.5191 13.2425 20.8758 13.2425C23.1601 13.2425 25.0119 15.0943 25.0119 17.3786V21.5147H20.8758Z" fill="#FFA654"/>
<path d="M5.36441 13.3726C4.7062 14.5594 4.33141 15.9253 4.33141 17.3786V21.5147H0.195312V17.3786C0.195312 15.0943 2.04711 13.2425 4.33141 13.2425C4.68809 13.2425 5.03423 13.2877 5.36441 13.3726Z" fill="#FFA654"/>
</svg>
