<svg width="23" height="23" viewBox="0 0 23 23" fill="none" xmlns="http://www.w3.org/2000/svg">
<path d="M12.5784 0.8772C12.04 0.338785 11.1671 0.338785 10.6287 0.8772L0.977786 10.5281C0.439371 11.0665 0.439371 11.9394 0.977786 12.4779C1.5162 13.0163 2.38914 13.0163 2.92756 12.4779L3.33137 12.074V21.1539C3.33137 21.9153 3.94864 22.5326 4.71007 22.5326H7.46747C8.2289 22.5326 8.84616 21.9153 8.84616 21.1539V18.3965C8.84616 17.635 9.46343 17.0178 10.2249 17.0178H12.9823C13.7437 17.0178 14.361 17.635 14.361 18.3965V21.1539C14.361 21.9153 14.9782 22.5326 15.7397 22.5326H18.4971C19.2585 22.5326 19.8757 21.9153 19.8757 21.1539V12.074L20.2796 12.4779C20.818 13.0163 21.6909 13.0163 22.2293 12.4779C22.7678 11.9394 22.7678 11.0665 22.2293 10.5281L12.5784 0.8772Z" fill="#F7EDE2"/>
</svg>
