<svg width="21" height="23" viewBox="0 0 21 23" fill="none" xmlns="http://www.w3.org/2000/svg">
<path fill-rule="evenodd" clip-rule="evenodd" d="M3.71003 0.449707C2.18717 0.449707 0.952637 1.68424 0.952637 3.2071V22.5089L5.77808 19.7515L10.6035 22.5089L15.429 19.7515L20.2544 22.5089V3.2071C20.2544 1.68424 19.0199 0.449707 17.497 0.449707H3.71003ZM7.15678 4.5858C6.01463 4.5858 5.08873 5.5117 5.08873 6.65385C5.08873 7.796 6.01463 8.7219 7.15678 8.7219C8.29893 8.7219 9.22483 7.796 9.22483 6.65385C9.22483 5.5117 8.29893 4.5858 7.15678 4.5858ZM15.7145 4.98961C15.1761 4.4512 14.3031 4.4512 13.7647 4.98961L5.49254 13.2618C4.95413 13.8002 4.95413 14.6732 5.49254 15.2116C6.03096 15.75 6.9039 15.75 7.44232 15.2116L15.7145 6.93939C16.2529 6.40097 16.2529 5.52803 15.7145 4.98961ZM14.0503 11.4793C12.9081 11.4793 11.9822 12.4052 11.9822 13.5473C11.9822 14.6895 12.9081 15.6154 14.0503 15.6154C15.1924 15.6154 16.1183 14.6895 16.1183 13.5473C16.1183 12.4052 15.1924 11.4793 14.0503 11.4793Z" fill="#FFA654"/>
</svg>
