<svg width="23" height="23" viewBox="0 0 23 23" fill="none" xmlns="http://www.w3.org/2000/svg">
<path fill-rule="evenodd" clip-rule="evenodd" d="M13.6567 2.30065C13.1342 0.148155 10.0729 0.148154 9.55038 2.30065C9.21281 3.69114 7.61974 4.35101 6.39782 3.60648C4.50627 2.45394 2.34164 4.61858 3.49418 6.51013C4.23871 7.73205 3.57884 9.32511 2.18835 9.66268C0.0358491 10.1852 0.0358501 13.2465 2.18835 13.7691C3.57884 14.1066 4.23871 15.6997 3.49418 16.9216C2.34164 18.8132 4.50627 20.9778 6.39782 19.8252C7.61974 19.0807 9.21281 19.7406 9.55038 21.1311C10.0729 23.2836 13.1342 23.2836 13.6567 21.1311C13.9943 19.7406 15.5874 19.0807 16.8093 19.8252C18.7009 20.9778 20.8655 18.8132 19.7129 16.9216C18.9684 15.6997 19.6283 14.1066 21.0188 13.7691C23.1713 13.2465 23.1713 10.1852 21.0188 9.66268C19.6283 9.32511 18.9684 7.73205 19.7129 6.51013C20.8655 4.61858 18.7009 2.45394 16.8093 3.60648C15.5874 4.35101 13.9943 3.69114 13.6567 2.30065ZM11.6036 15.852C13.8879 15.852 15.7397 14.0002 15.7397 11.7159C15.7397 9.43156 13.8879 7.57977 11.6036 7.57977C9.31926 7.57977 7.46747 9.43156 7.46747 11.7159C7.46747 14.0002 9.31926 15.852 11.6036 15.852Z" fill="#FFA654"/>
</svg>
